<svg xmlns="http://www.w3.org/2000/svg" width="46.562" height="45.94" viewBox="0 0 46.562 45.94">
  <metadata><?xpacket begin="﻿" id="W5M0MpCehiHzreSzNTczkc9d"?>
<x:xmpmeta xmlns:x="adobe:ns:meta/" x:xmptk="Adobe XMP Core 5.6-c138 79.159824, 2016/09/14-01:09:01        ">
   <rdf:RDF xmlns:rdf="http://www.w3.org/1999/02/22-rdf-syntax-ns#">
      <rdf:Description rdf:about=""/>
   </rdf:RDF>
</x:xmpmeta>
                                                                                                    
                                                                                                    
                                                                                                    
                                                                                                    
                                                                                                    
                                                                                                    
                                                                                                    
                                                                                                    
                                                                                                    
                                                                                                    
                                                                                                    
                                                                                                    
                                                                                                    
                                                                                                    
                                                                                                    
                                                                                                    
                                                                                                    
                                                                                                    
                                                                                                    
                                                                                                    
                           
<?xpacket end="w"?></metadata>
<defs>
    <style>
      .cls-1 {
        fill: #fff;
        fill-rule: evenodd;
      }
    </style>
  </defs>
  <path id="Chat_03_-_www.Shapes4FREE.com_1" data-name="Chat 03 - www.Shapes4FREE.com 1" class="cls-1" d="M575.18,1490.68a7.832,7.832,0,0,0-7.83-7.83H544.538a7.833,7.833,0,0,0-7.831,7.83v13.94a7.833,7.833,0,0,0,7.831,7.83H546.1l-1.278,8.94,12.778-8.94h9.753a7.832,7.832,0,0,0,7.83-7.83v-13.94Zm8.112,7.47a7.827,7.827,0,0,0-4.439-7.06v11.07l-0.019-.04v5.58a7.832,7.832,0,0,1-7.83,7.83H560.785l-6.891,4.38h8.048l13.952,8.88-1.269-8.88h0.837a7.826,7.826,0,0,0,7.83-7.83v-13.93Z" transform="translate(-536.719 -1482.84)"/>
</svg>
