<svg xmlns="http://www.w3.org/2000/svg" width="46.18" height="46.18" viewBox="0 0 46.18 46.18">
  <metadata><?xpacket begin="﻿" id="W5M0MpCehiHzreSzNTczkc9d"?>
<x:xmpmeta xmlns:x="adobe:ns:meta/" x:xmptk="Adobe XMP Core 5.6-c138 79.159824, 2016/09/14-01:09:01        ">
   <rdf:RDF xmlns:rdf="http://www.w3.org/1999/02/22-rdf-syntax-ns#">
      <rdf:Description rdf:about=""/>
   </rdf:RDF>
</x:xmpmeta>
                                                                                                    
                                                                                                    
                                                                                                    
                                                                                                    
                                                                                                    
                                                                                                    
                                                                                                    
                                                                                                    
                                                                                                    
                                                                                                    
                                                                                                    
                                                                                                    
                                                                                                    
                                                                                                    
                                                                                                    
                                                                                                    
                                                                                                    
                                                                                                    
                                                                                                    
                                                                                                    
                           
<?xpacket end="w"?></metadata>
<defs>
    <style>
      .cls-1 {
        fill: #fff;
        fill-rule: evenodd;
      }
    </style>
  </defs>
  <path id="Gear_-_www.Shapes4FREE.com_1" data-name="Gear - www.Shapes4FREE.com 1" class="cls-1" d="M1383.11,1502.41l-4.44-1.98a18.557,18.557,0,0,0-.72-2.68l2.86-3.92-1.6-2.76-4.83.51a18.136,18.136,0,0,0-1.96-1.96l0.51-4.83-2.76-1.6-3.92,2.86a18.688,18.688,0,0,0-2.69-.72l-1.97-4.44h-3.18l-1.97,4.44a18.688,18.688,0,0,0-2.69.72l-3.92-2.86-2.76,1.6,0.51,4.83a18.136,18.136,0,0,0-1.96,1.96l-4.83-.51-1.6,2.76,2.86,3.92a18.557,18.557,0,0,0-.72,2.68l-4.44,1.98v3.18l4.44,1.97a18.688,18.688,0,0,0,.72,2.69l-2.86,3.92,1.6,2.76,4.83-.51a18.136,18.136,0,0,0,1.96,1.96l-0.51,4.83,2.76,1.6,3.92-2.86a20.085,20.085,0,0,0,2.69.72l1.97,4.43h3.18l1.97-4.43a20.085,20.085,0,0,0,2.69-.72l3.92,2.86,2.76-1.6-0.51-4.83a18.136,18.136,0,0,0,1.96-1.96l4.83,0.51,1.6-2.76-2.86-3.92a18.688,18.688,0,0,0,.72-2.69l4.44-1.97v-3.18Zm-13.68,3.81c-0.48.01-1.04,0.01-1.67-.01-0.08.26-.16,0.51-0.26,0.75,0.51,0.38.96,0.71,1.34,1.02a9.593,9.593,0,0,1-.74,1.33c-0.45-.15-0.98-0.35-1.57-0.58-0.16.21-.32,0.42-0.5,0.62,0.36,0.52.66,0.99,0.91,1.41a9.069,9.069,0,0,1-1.14,1c-0.38-.3-0.81-0.66-1.28-1.08-0.22.15-.45,0.28-0.68,0.41,0.15,0.62.28,1.16,0.37,1.64a9.71,9.71,0,0,1-1.42.55c-0.25-.41-0.52-0.9-0.83-1.46-0.25.06-.51,0.12-0.78,0.16-0.06.63-.13,1.18-0.2,1.66-0.33.03-.65,0.05-0.98,0.05-0.18,0-.37-0.01-0.55-0.02-0.09-.47-0.19-1.02-0.28-1.65-0.27-.03-0.53-0.07-0.79-0.12-0.28.57-.53,1.07-0.76,1.49a9.16,9.16,0,0,1-1.45-.49c0.08-.48.18-1.02,0.3-1.65a6.656,6.656,0,0,1-.69-0.38q-0.69.66-1.23,1.14a9.993,9.993,0,0,1-1.19-.96c0.23-.42.52-0.9,0.85-1.44a5.881,5.881,0,0,1-.52-0.6c-0.59.26-1.1,0.48-1.55,0.65a9.008,9.008,0,0,1-.79-1.3c0.36-.32.79-0.67,1.29-1.07a6.674,6.674,0,0,1-.29-0.74c-0.63.04-1.19,0.07-1.68,0.08a10.331,10.331,0,0,1-.29-1.49c0.45-.18.98-0.37,1.58-0.57a5.429,5.429,0,0,1-.02-0.57v-0.22c-0.61-.18-1.14-0.34-1.6-0.49a8.335,8.335,0,0,1,.23-1.51c0.48-.01,1.04-0.01,1.67.01,0.08-.26.16-0.51,0.26-0.75-0.51-.38-0.96-0.72-1.34-1.02a9.593,9.593,0,0,1,.74-1.33c0.45,0.15.98,0.35,1.57,0.58a7.524,7.524,0,0,1,.5-0.62c-0.36-.53-0.66-1-0.91-1.41a10.028,10.028,0,0,1,1.14-1.01c0.38,0.31.81,0.67,1.28,1.09a6.817,6.817,0,0,1,.68-0.41c-0.15-.62-0.28-1.16-0.37-1.64a9.71,9.71,0,0,1,1.42-.55c0.25,0.41.52,0.9,0.83,1.46a6.331,6.331,0,0,1,.78-0.16c0.06-.63.13-1.18,0.2-1.66,0.33-.03.65-0.05,0.98-0.05,0.18,0,.37.01,0.55,0.02,0.09,0.47.19,1.02,0.28,1.65,0.27,0.03.53,0.07,0.79,0.12,0.28-.57.53-1.07,0.76-1.49a10.262,10.262,0,0,1,1.45.48c-0.08.48-.18,1.03-0.3,1.66a6.656,6.656,0,0,1,.69.38q0.69-.66,1.23-1.14a9.013,9.013,0,0,1,1.19.95c-0.23.43-.52,0.91-0.85,1.45a5.881,5.881,0,0,1,.52.6c0.59-.26,1.1-0.48,1.55-0.66a9.693,9.693,0,0,1,.79,1.31c-0.36.32-.79,0.67-1.29,1.07a6.674,6.674,0,0,1,.29.74c0.63-.05,1.19-0.07,1.68-0.09a10.741,10.741,0,0,1,.29,1.5c-0.45.17-.98,0.36-1.58,0.57a5.429,5.429,0,0,1,.02.57v0.22c0.61,0.17,1.14.34,1.6,0.49A8.335,8.335,0,0,1,1369.43,1506.22Z" transform="translate(-1336.91 -1480.91)"/>
</svg>
