<svg xmlns="http://www.w3.org/2000/svg" width="46.656" height="46.66" viewBox="0 0 46.656 46.66">
  <metadata><?xpacket begin="﻿" id="W5M0MpCehiHzreSzNTczkc9d"?>
<x:xmpmeta xmlns:x="adobe:ns:meta/" x:xmptk="Adobe XMP Core 5.6-c138 79.159824, 2016/09/14-01:09:01        ">
   <rdf:RDF xmlns:rdf="http://www.w3.org/1999/02/22-rdf-syntax-ns#">
      <rdf:Description rdf:about=""/>
   </rdf:RDF>
</x:xmpmeta>
                                                                                                    
                                                                                                    
                                                                                                    
                                                                                                    
                                                                                                    
                                                                                                    
                                                                                                    
                                                                                                    
                                                                                                    
                                                                                                    
                                                                                                    
                                                                                                    
                                                                                                    
                                                                                                    
                                                                                                    
                                                                                                    
                                                                                                    
                                                                                                    
                                                                                                    
                                                                                                    
                           
<?xpacket end="w"?></metadata>
<defs>
    <style>
      .cls-1 {
        fill: #fff;
        fill-rule: evenodd;
      }
    </style>
  </defs>
  <path id="Tag_03_-_www.Shapes4FREE.com_1" data-name="Tag 03 - www.Shapes4FREE.com 1" class="cls-1" d="M852.24,1484.89a3.127,3.127,0,0,0-3.129-3.12h-13.7a3.177,3.177,0,0,0-1.413.33,3.653,3.653,0,0,0-1.322.85l-26.033,26.03a3.674,3.674,0,0,0,0,5.19l13.18,13.18a3.666,3.666,0,0,0,5.182,0l26.033-26.04a3.645,3.645,0,0,0,1-1.87,3.12,3.12,0,0,0,.2-1.09v-13.46Zm-10.963,7.82a3.146,3.146,0,1,1,4.448,0A3.148,3.148,0,0,1,841.277,1492.71Zm2.35,10.24-19.844,19.84a0.952,0.952,0,0,1-1.309-.17l-11.089-11.09a0.95,0.95,0,0,1-.169-1.31l19.844-19.84a0.943,0.943,0,0,1,1.309.17l11.088,11.09A0.951,0.951,0,0,1,843.627,1502.95Z" transform="translate(-805.594 -1481.78)"/>
</svg>
