<svg xmlns="http://www.w3.org/2000/svg" width="21" height="15" viewBox="0 0 21 15">
  <metadata><?xpacket begin="﻿" id="W5M0MpCehiHzreSzNTczkc9d"?>
<x:xmpmeta xmlns:x="adobe:ns:meta/" x:xmptk="Adobe XMP Core 5.6-c138 79.159824, 2016/09/14-01:09:01        ">
   <rdf:RDF xmlns:rdf="http://www.w3.org/1999/02/22-rdf-syntax-ns#">
      <rdf:Description rdf:about=""/>
   </rdf:RDF>
</x:xmpmeta>
                                                                                                    
                                                                                                    
                                                                                                    
                                                                                                    
                                                                                                    
                                                                                                    
                                                                                                    
                                                                                                    
                                                                                                    
                                                                                                    
                                                                                                    
                                                                                                    
                                                                                                    
                                                                                                    
                                                                                                    
                                                                                                    
                                                                                                    
                                                                                                    
                                                                                                    
                                                                                                    
                           
<?xpacket end="w"?></metadata>
<defs>
    <style>
      .cls-1 {
        fill: #f7a707;
        fill-rule: evenodd;
      }
    </style>
  </defs>
  <path id="Forma_1" data-name="Forma 1" class="cls-1" d="M395.815,4402.07l-6.369,6.43,6.369,6.43a1.924,1.924,0,0,0,.185-0.81v-11.25A1.879,1.879,0,0,0,395.815,4402.07Zm-1.661-1.07H376.846a1.764,1.764,0,0,0-.791.19l8.14,8.22a1.812,1.812,0,0,0,2.61,0l8.14-8.22A1.764,1.764,0,0,0,394.154,4401Zm-18.969,1.07a1.879,1.879,0,0,0-.185.8v11.25a1.924,1.924,0,0,0,.185.81l6.369-6.43Zm13.391,7.31-0.9.92a3.043,3.043,0,0,1-4.35,0l-0.9-.92-6.369,6.43a1.764,1.764,0,0,0,.791.19h17.308a1.764,1.764,0,0,0,.791-0.19Z" transform="translate(-375 -4401)"/>
</svg>
