<svg xmlns="http://www.w3.org/2000/svg" width="23" height="23.25" viewBox="0 0 23 23.25">
  <metadata><?xpacket begin="﻿" id="W5M0MpCehiHzreSzNTczkc9d"?>
<x:xmpmeta xmlns:x="adobe:ns:meta/" x:xmptk="Adobe XMP Core 5.6-c138 79.159824, 2016/09/14-01:09:01        ">
   <rdf:RDF xmlns:rdf="http://www.w3.org/1999/02/22-rdf-syntax-ns#">
      <rdf:Description rdf:about=""/>
   </rdf:RDF>
</x:xmpmeta>
                                                                                                    
                                                                                                    
                                                                                                    
                                                                                                    
                                                                                                    
                                                                                                    
                                                                                                    
                                                                                                    
                                                                                                    
                                                                                                    
                                                                                                    
                                                                                                    
                                                                                                    
                                                                                                    
                                                                                                    
                                                                                                    
                                                                                                    
                                                                                                    
                                                                                                    
                                                                                                    
                           
<?xpacket end="w"?></metadata>
<defs>
    <style>
      .cls-1 {
        fill: #f7a707;
        fill-rule: evenodd;
      }
    </style>
  </defs>
  <path id="Forma_1" data-name="Forma 1" class="cls-1" d="M650.154,64.135a12.929,12.929,0,0,1-4.1-.661,1.859,1.859,0,0,0-1.823.389l-2.586,1.974a14.372,14.372,0,0,1-6.425-6.495l1.894-2.546a1.893,1.893,0,0,0,.458-1.9,13.346,13.346,0,0,1-.656-4.152,1.858,1.858,0,0,0-1.846-1.866h-4.224A1.857,1.857,0,0,0,629,50.739a21.3,21.3,0,0,0,21.154,21.385A1.858,1.858,0,0,0,652,70.258V66A1.858,1.858,0,0,0,650.154,64.135Z" transform="translate(-629 -48.875)"/>
</svg>
