<svg xmlns="http://www.w3.org/2000/svg" xmlns:xlink="http://www.w3.org/1999/xlink" width="25" height="25.188" viewBox="0 0 25 25.188">
  <metadata><?xpacket begin="﻿" id="W5M0MpCehiHzreSzNTczkc9d"?>
<x:xmpmeta xmlns:x="adobe:ns:meta/" x:xmptk="Adobe XMP Core 5.6-c138 79.159824, 2016/09/14-01:09:01        ">
   <rdf:RDF xmlns:rdf="http://www.w3.org/1999/02/22-rdf-syntax-ns#">
      <rdf:Description rdf:about=""/>
   </rdf:RDF>
</x:xmpmeta>
                                                                                                    
                                                                                                    
                                                                                                    
                                                                                                    
                                                                                                    
                                                                                                    
                                                                                                    
                                                                                                    
                                                                                                    
                                                                                                    
                                                                                                    
                                                                                                    
                                                                                                    
                                                                                                    
                                                                                                    
                                                                                                    
                                                                                                    
                                                                                                    
                                                                                                    
                                                                                                    
                           
<?xpacket end="w"?></metadata>
<defs>
    <style>
      .cls-1 {
        fill-rule: evenodd;
        filter: url(#filter);
      }
    </style>
    <filter id="filter" x="1520" y="48" width="25" height="25.188" filterUnits="userSpaceOnUse">
      <feFlood result="flood" flood-color="#585b5b"/>
      <feComposite result="composite" operator="in" in2="SourceGraphic"/>
      <feBlend result="blend" in2="SourceGraphic"/>
    </filter>
  </defs>
  <path class="cls-1" d="M1530.9,58.119v4.6l4.2-2.28ZM1538.73,48h-12.47a6.306,6.306,0,0,0-6.25,6.321V66.9a6.3,6.3,0,0,0,6.25,6.3h12.47a6.31,6.31,0,0,0,6.27-6.32V54.319A6.31,6.31,0,0,0,1538.73,48Zm1.51,13.22c0,1.32-.12,2.661-0.12,2.661a3.7,3.7,0,0,1-.59,1.62,2.15,2.15,0,0,1-1.55.7c-2.18.16-5.45,0.18-5.45,0.18s-4.07-.06-5.32-0.18a2.511,2.511,0,0,1-1.72-.7,3.383,3.383,0,0,1-.6-1.62s-0.12-1.341-.12-2.661v-1.24c0-1.321.12-2.66,0.12-2.66a3.629,3.629,0,0,1,.6-1.62,2.188,2.188,0,0,1,1.54-.721c2.2-.159,5.48-0.179,5.48-0.179s3.27,0.02,5.45.179a2.288,2.288,0,0,1,1.57.7,3.5,3.5,0,0,1,.59,1.64s0.12,1.34.12,2.66v1.24Z" transform="translate(-1520 -48)"/>
</svg>
